<svg width="70" height="75" viewBox="0 0 70 75" fill="none" xmlns="http://www.w3.org/2000/svg">
<path id="C" d="M19.1752 37.25C19.1752 39.6333 19.3335 41.825 19.6502 43.825C19.9835 45.825 20.4669 47.6333 21.1002 49.25C21.7335 50.8667 22.5252 52.2917 23.4752 53.525C24.4252 54.7417 25.5085 55.7583 26.7252 56.575C27.9585 57.3917 29.3335 58.0083 30.8502 58.425C32.3669 58.8417 34.0252 59.05 35.8252 59.05C37.9585 59.05 39.8669 58.7333 41.5502 58.1C43.2502 57.4667 44.7335 56.5167 46.0002 55.25C47.2669 53.9667 48.3169 52.375 49.1502 50.475C50.0002 48.5583 50.6252 46.3167 51.0252 43.75H69.3502C68.7002 48.5333 67.4502 52.825 65.6002 56.625C63.7502 60.4083 61.3752 63.625 58.4752 66.275C55.5919 68.925 52.2335 70.9583 48.4002 72.375C44.5835 73.7917 40.3835 74.5 35.8002 74.5C32.3835 74.5 29.1335 74.1 26.0502 73.3C22.9835 72.5 20.1419 71.35 17.5252 69.85C14.9252 68.35 12.5752 66.5167 10.4752 64.35C8.39186 62.1667 6.61686 59.7 5.1502 56.95C3.68353 54.1833 2.5502 51.15 1.7502 47.85C0.966862 44.55 0.575195 41.0167 0.575195 37.25C0.575195 33.4833 0.966862 29.95 1.7502 26.65C2.5502 23.35 3.68353 20.325 5.1502 17.575C6.61686 14.8083 8.39186 12.3417 10.4752 10.175C12.5752 7.99167 14.9252 6.15 17.5252 4.65C20.1419 3.15 22.9835 2 26.0502 1.2C29.1335 0.399999 32.3835 0 35.8002 0C40.3835 0 44.5835 0.708334 48.4002 2.125C52.2335 3.54166 55.5919 5.575 58.4752 8.225C61.3752 10.875 63.7502 14.1 65.6002 17.9C67.4502 21.6833 68.7002 25.9667 69.3502 30.75H51.0252C50.6252 28.1833 50.0002 25.95 49.1502 24.05C48.3169 22.1333 47.2669 20.5417 46.0002 19.275C44.7335 17.9917 43.2502 17.0333 41.5502 16.4C39.8669 15.7667 37.9585 15.45 35.8252 15.45C34.0252 15.45 32.3669 15.6583 30.8502 16.075C29.3335 16.4917 27.9585 17.1083 26.7252 17.925C25.5085 18.7417 24.4252 19.7667 23.4752 21C22.5252 22.2167 21.7335 23.6333 21.1002 25.25C20.4669 26.8667 19.9835 28.675 19.6502 30.675C19.3335 32.675 19.1752 34.8667 19.1752 37.25Z" fill="#10D56C"/>
</svg>
