<svg width="65" height="72" viewBox="0 0 65 72" fill="none" xmlns="http://www.w3.org/2000/svg">
<path id="D" d="M0.0253906 71.5V0H28.6504C32.1504 0 35.4587 0.375001 38.5754 1.125C41.7087 1.875 44.5921 2.96667 47.2254 4.4C49.8754 5.83334 52.2504 7.59167 54.3504 9.675C56.4504 11.7583 58.2337 14.125 59.7004 16.775C61.1837 19.425 62.3171 22.3417 63.1004 25.525C63.8837 28.6917 64.2754 32.1 64.2754 35.75C64.2754 39.4 63.8837 42.8167 63.1004 46C62.3171 49.1667 61.1837 52.075 59.7004 54.725C58.2337 57.375 56.4504 59.7417 54.3504 61.825C52.2504 63.9083 49.8754 65.6667 47.2254 67.1C44.5921 68.5333 41.7087 69.625 38.5754 70.375C35.4587 71.125 32.1504 71.5 28.6504 71.5H0.0253906ZM21.0754 55.95L19.2754 54.15H27.9254C29.5754 54.15 31.0921 53.9833 32.4754 53.65C33.8587 53.3167 35.1004 52.8167 36.2004 52.15C37.3171 51.4667 38.2921 50.6167 39.1254 49.6C39.9754 48.5667 40.6837 47.3667 41.2504 46C41.8171 44.6333 42.2421 43.1 42.5254 41.4C42.8254 39.7 42.9754 37.8167 42.9754 35.75C42.9754 33.6833 42.8254 31.8 42.5254 30.1C42.2421 28.4 41.8171 26.8667 41.2504 25.5C40.6837 24.1333 39.9754 22.9417 39.1254 21.925C38.2921 20.8917 37.3171 20.0417 36.2004 19.375C35.1004 18.6917 33.8587 18.1833 32.4754 17.85C31.0921 17.5167 29.5754 17.35 27.9254 17.35H19.2754L21.0754 15.55V55.95Z" fill="#10D56C"/>
</svg>
