<svg width="66" height="73" viewBox="0 0 66 73" fill="none" xmlns="http://www.w3.org/2000/svg">
<path id="R" d="M19.4002 72.0123H0.950195V0.487305H36.7002C40.9335 0.487305 44.7002 0.995637 48.0002 2.0123C51.3169 3.0123 54.1085 4.45397 56.3752 6.3373C58.6419 8.22064 60.3669 10.5206 61.5502 13.2373C62.7502 15.9373 63.3502 18.9873 63.3502 22.3873C63.3502 25.4373 62.8585 28.1873 61.8752 30.6373C60.8919 33.0873 59.4919 35.179 57.6752 36.9123C55.8585 38.6456 53.6669 39.9873 51.1002 40.9373C48.5335 41.8706 45.6752 42.3373 42.5252 42.3373V42.2873C44.0919 42.2873 45.5669 42.529 46.9502 43.0123C48.3502 43.479 49.6502 44.1873 50.8502 45.1373C52.0669 46.0873 53.1835 47.2706 54.2002 48.6873C55.2335 50.0873 56.1669 51.7206 57.0002 53.5873L65.2752 72.0123H44.7502L36.3502 53.6123C35.6835 52.179 35.0502 50.9956 34.4502 50.0623C33.8669 49.129 33.2335 48.404 32.5502 47.8873C31.8835 47.354 31.1252 46.9873 30.2752 46.7873C29.4419 46.5706 28.4419 46.4623 27.2752 46.4623H18.7002L19.4002 45.5873V72.0123ZM18.5502 15.1873L19.4002 14.1123V33.9123L18.0752 32.2123H34.6502C36.2835 32.2123 37.7335 32.0206 39.0002 31.6373C40.2669 31.254 41.3335 30.6956 42.2002 29.9623C43.0669 29.229 43.7252 28.329 44.1752 27.2623C44.6419 26.179 44.8752 24.9623 44.8752 23.6123C44.8752 22.2456 44.6502 21.0373 44.2002 19.9873C43.7502 18.9373 43.0919 18.0623 42.2252 17.3623C41.3585 16.6456 40.2835 16.104 39.0002 15.7373C37.7335 15.3706 36.2752 15.1873 34.6252 15.1873H18.5502Z" fill="#10D56C"/>
</svg>
