<svg xmlns="http://www.w3.org/2000/svg" height="48" viewBox="0 96 960 960" width="48"><path d="M170 957q-25.95 0-45.975-19.5Q104 918 104 892V342.184q0-17.646 4-28.915Q112 302 121 292l58.375-79.025Q187 203 198.763 198.5q11.763-4.5 27.623-4.5h507.228q15.86 0 27.123 4.5Q772 203 779.889 212.978l60.222 79.044Q848 302 852 313.269q4 11.269 4 28.915V892q0 26-20.025 45.5T790 957H170Zm24-644h571l-37.409-46H231l-37 46Zm-17 73v498h606V386H177Zm303 405 167-167-49-49-81 81V459h-73v197l-82-81-48 49 166 167Zm-303 93h606-606Z"/></svg>