<svg width="32" height="32" viewBox="0 0 32 32" fill="none" xmlns="http://www.w3.org/2000/svg">
<g clip-path="url(#clip0_1636_9640)">
<path fill-rule="evenodd" clip-rule="evenodd" d="M21.3272 0.472219C21.1894 0.568719 21.1883 0.583344 21.1883 2.27828V3.98709L20.652 4.00909C20.2075 4.02741 20.1004 4.05209 20.0263 4.15347C19.9516 4.25553 19.9396 4.68347 19.9532 6.74722L19.9695 9.21866L20.2977 9.23753L20.6258 9.25647V7.00316V4.74991H21.1119C21.9314 4.74991 21.8758 4.90922 21.8758 2.56241C21.8758 0.573844 21.8755 0.569281 21.7369 0.472219C21.563 0.350406 21.501 0.350406 21.3272 0.472219ZM10.6883 0.857531C10.322 0.995156 10.0051 1.44866 10.0022 1.83953C10 2.12022 10.2339 2.54178 10.474 2.69016L10.6883 2.82259V4.33741C10.6883 6.38684 10.6465 6.26628 11.7516 7.40922C12.6557 8.34434 12.6644 8.35847 12.7035 8.96866L12.7195 9.21866H13.0633H13.407L13.3891 8.78497C13.3619 8.12566 13.2276 7.89541 12.3502 7.00341C11.9257 6.57178 11.5469 6.15722 11.5084 6.08216C11.4622 5.99222 11.4383 5.42103 11.4383 4.40922V2.87278L11.7134 2.60822C12.1382 2.19972 12.2077 1.68634 11.9015 1.21891C11.6999 0.911219 11.0559 0.719344 10.6883 0.857531ZM23.5417 1.98922C23.4493 2.09134 23.4383 2.35697 23.4383 4.48922V6.87491H22.4115C21.5614 6.87491 21.3678 6.89178 21.2865 6.97309C21.2047 7.05491 21.1883 7.25372 21.1883 8.16059V9.24991H21.532H21.8758V8.40616V7.56241H22.9026C23.7527 7.56241 23.9463 7.54553 24.0276 7.46422C24.1138 7.37797 24.1258 7.04191 24.1258 4.71772V2.06947L23.9869 1.97222C23.804 1.84409 23.6684 1.84928 23.5417 1.98922ZM14.2352 2.56741C14.1332 2.62678 14.1258 2.85316 14.1258 5.90928V9.18741H14.4695H14.8133V5.94709C14.8133 2.88728 14.8069 2.70103 14.699 2.60334C14.57 2.48659 14.3969 2.47322 14.2352 2.56741ZM25.0365 3.03559C24.952 3.12009 24.9383 3.37216 24.9383 4.83841C24.9383 6.41047 24.9472 6.55109 25.0526 6.64647C25.1439 6.72909 25.3009 6.74991 25.8339 6.74991H26.5008V8.78116V10.8124H25.3758H24.2508V11.1562V11.4999H25.6535C27.0322 11.4999 27.0579 11.4975 27.1535 11.361C27.2375 11.241 27.2508 10.8892 27.2508 8.78116C27.2508 6.67309 27.2375 6.32128 27.1535 6.20134C27.0626 6.07153 27.0092 6.06241 26.341 6.06241H25.6258V4.56459C25.6258 3.14772 25.6192 3.06328 25.5049 3.00209C25.3315 2.90928 25.1499 2.92228 25.0365 3.03559ZM17.3308 4.06366C17.2545 4.09434 17.1764 4.18397 17.1572 4.26284C17.1379 4.34166 17.1301 5.48897 17.1397 6.81241L17.157 9.21866L17.4852 9.23753L17.8133 9.25647V6.72547V4.19447L17.6744 4.09722C17.5175 3.98728 17.52 3.98753 17.3308 4.06366ZM15.6657 5.80284C15.5726 5.90566 15.563 6.09916 15.5779 7.56847L15.5945 9.21866L15.9227 9.23753L16.2508 9.25647V7.57016C16.2508 6.12047 16.237 5.87003 16.1526 5.78559C16.0205 5.65353 15.7935 5.66153 15.6657 5.80284ZM18.7824 5.83434C18.7008 5.95884 18.6887 6.22797 18.7029 7.59997L18.7195 9.21866H19.0633H19.407V7.54166C19.407 5.95378 19.4006 5.86003 19.2857 5.77603C19.104 5.64328 18.8915 5.66791 18.7824 5.83434ZM8.21955 6.46347C7.75992 6.66866 7.48205 7.23228 7.61755 7.68459C7.70142 7.96447 7.9493 8.28766 8.12217 8.34253C8.22736 8.37591 8.2403 8.47278 8.2623 9.39272C8.28986 10.5469 8.35286 10.7475 8.81067 11.1394C9.14336 11.4242 9.42436 11.4999 10.1487 11.4999H10.7508V11.1562V10.8124H10.2175C9.58261 10.8124 9.30273 10.7131 9.12742 10.4255C9.01605 10.2429 9.00123 10.1112 9.00105 9.30097C9.0008 8.44497 9.00898 8.38072 9.12305 8.34453C9.30842 8.28572 9.55161 7.96278 9.63011 7.67141C9.84592 6.86991 8.97667 6.12553 8.21955 6.46347ZM0.875173 8.51553C0.55236 8.73522 0.420423 8.95741 0.394173 9.32547C0.37561 9.58547 0.401235 9.70959 0.514048 9.90616C0.675548 10.1875 1.09705 10.4383 1.40467 10.436C1.70899 10.4338 2.10386 10.2197 2.2628 9.97072L2.40705 9.74459L3.27136 9.76291L4.13574 9.78116L4.34049 10.0048C4.54286 10.2257 4.54561 10.2372 4.57699 10.9735C4.62142 12.019 4.8303 12.4305 5.46699 12.727C5.78086 12.8732 5.7913 12.8737 8.26642 12.8743L10.7508 12.8749V12.5312V12.1874H8.3738C5.74242 12.1874 5.66992 12.1778 5.43992 11.8005C5.33536 11.6291 5.31374 11.4853 5.31355 10.9609C5.31317 9.98328 5.09699 9.52747 4.4903 9.22509C4.18605 9.07353 4.1038 9.06222 3.28542 9.05997L2.40705 9.05759L2.28205 8.85922C1.97961 8.37928 1.31424 8.21672 0.875173 8.51553ZM12.1557 9.87047C11.8778 9.93716 11.6463 10.1083 11.4863 10.3657L11.3445 10.5937L11.3272 15.8306C11.3155 19.3572 11.3314 21.1474 11.3757 21.3122C11.4586 21.62 11.7154 21.929 11.9802 22.0397C12.1471 22.1094 13.1495 22.1249 17.4855 22.1249H22.7868L23.0657 21.9843C23.2694 21.8815 23.3824 21.7685 23.4852 21.5648L23.6258 21.2859V15.9847C23.6258 11.6487 23.6103 10.6462 23.5405 10.4793C23.4319 10.2192 23.1249 9.96041 22.827 9.87766C22.5597 9.80341 12.4637 9.79666 12.1557 9.87047ZM28.5633 10.3124C28.4502 10.4255 28.4383 10.5207 28.4383 11.3124V12.1874H26.3445H24.2508V12.5312V12.8749H26.6182C28.7419 12.8749 28.9943 12.8643 29.0713 12.7718C29.1324 12.6983 29.1629 12.4198 29.1774 11.803L29.1977 10.9374H30.4291C31.7955 10.9374 31.9383 10.9025 31.9383 10.5685C31.9383 10.2042 31.8616 10.1874 30.199 10.1874C28.7716 10.1874 28.6814 10.1943 28.5633 10.3124ZM12.8133 15.9999V20.6874H17.5008H22.1883V15.9999V11.3124H17.5008H12.8133V15.9999ZM13.4383 15.9999V20.0624H17.5008H21.5633V15.9999V11.9374H17.5008H13.4383V15.9999ZM7.29261 14.1132C7.16492 14.2543 7.15905 14.436 7.27692 14.5973C7.36092 14.7122 7.45467 14.7187 9.04255 14.7187H10.7195V14.3749V14.0312L9.05824 14.0145C7.51092 13.999 7.3898 14.0058 7.29261 14.1132ZM24.2633 14.3593L24.282 14.7187L25.822 14.7353C26.7435 14.7453 27.4282 14.7269 27.5268 14.6894C27.8044 14.5838 27.8472 14.2123 27.6008 14.0477C27.563 14.0225 26.7924 14.0014 25.8883 14.0008L24.2445 13.9999L24.2633 14.3593ZM29.6194 15.0178C29.5026 15.0965 29.3508 15.2501 29.282 15.3592L29.157 15.5576L26.7039 15.56L24.2508 15.5624V15.9388V16.3152L26.7167 16.2982L29.1825 16.2812L29.2436 16.4153C29.3594 16.6695 29.7346 16.8948 30.0834 16.9197C30.725 16.9652 31.216 16.4708 31.1699 15.8255C31.1437 15.4574 31.0117 15.2352 30.6889 15.0155C30.4024 14.8205 29.911 14.8216 29.6194 15.0178ZM5.6763 15.6398C5.48905 15.7869 5.47942 15.9842 5.65105 16.1558L5.80905 16.3138L8.2643 16.2975L10.7195 16.2812V15.9374V15.5937L8.24811 15.5773C6.33355 15.5647 5.75399 15.5788 5.6763 15.6398ZM7.32867 17.2212C7.13605 17.3561 7.13955 17.6526 7.33524 17.7808C7.45974 17.8624 7.72886 17.8745 9.10086 17.8603L10.7195 17.8437V17.4999V17.1562L9.0943 17.1395C7.69898 17.1252 7.44911 17.1368 7.32867 17.2212ZM24.2508 17.4999V17.8749H25.8786H27.5065L27.6599 17.7215C27.7442 17.6371 27.8133 17.5374 27.8133 17.4999C27.8133 17.4624 27.7442 17.3627 27.6599 17.2783L27.5065 17.1249H25.8786H24.2508V17.4999ZM24.2958 18.9132C24.271 18.938 24.2508 19.1082 24.2508 19.2916V19.6249H25.3758H26.5008V21.2142C26.5008 22.5757 26.5149 22.8175 26.599 22.9017C26.6845 22.9872 26.975 22.9999 28.8365 22.9999C30.417 22.9999 30.9954 22.9803 31.0508 22.9249C31.1729 22.8028 31.1435 22.4513 31.0049 22.3771C30.9294 22.3367 30.1904 22.3124 29.0362 22.3124H27.1883V20.695C27.1883 19.268 27.1762 19.0676 27.0851 18.9919C27.0065 18.9267 26.6666 18.9017 25.6614 18.8872C24.935 18.8768 24.3205 18.8885 24.2958 18.9132ZM5.8133 19.0675C5.46655 19.2244 5.21855 19.4539 5.04192 19.7812C4.90792 20.0295 4.90717 20.0524 4.92692 23.2578L4.9468 26.4845L4.72186 26.6235C4.40555 26.819 4.22905 27.189 4.26642 27.5781C4.31892 28.1244 4.73267 28.4999 5.28205 28.4999C6.30105 28.4999 6.70211 27.1899 5.85455 26.63L5.6258 26.479V23.3613C5.6258 19.9658 5.62042 20.0198 5.98199 19.7748C6.14374 19.6652 6.33067 19.6538 8.4383 19.6249L10.7195 19.5937L10.7384 19.2655L10.7574 18.9374L8.42592 18.9388C6.2158 18.9401 6.07992 18.9468 5.8133 19.0675ZM8.6258 20.51C8.30361 20.6028 8.00286 20.8571 7.87036 21.1489C7.77011 21.3697 7.75355 21.5658 7.75355 22.5312C7.75355 23.7895 7.80674 24.013 8.18136 24.3282C8.44042 24.5462 8.73855 24.6242 9.31498 24.6245C9.86942 24.625 10.0633 24.5279 10.0633 24.2499C10.0633 23.969 9.87049 23.8749 9.2953 23.8749C9.02567 23.8749 8.75361 23.8473 8.69073 23.8137C8.50205 23.7127 8.4383 23.3978 8.43867 22.5687C8.43898 21.774 8.50455 21.358 8.64373 21.2678C8.68542 21.2408 9.16955 21.2046 9.71955 21.1874L10.7195 21.1562V20.8124V20.4687L9.78205 20.4578C9.26642 20.452 8.74611 20.4754 8.6258 20.51ZM24.2508 20.8124V21.1874H24.5945H24.9383V24.0817C24.9383 27.2122 24.9373 27.203 25.2711 27.203C25.6402 27.203 25.6258 27.3393 25.6258 23.8395V20.632L25.4869 20.5347C25.3868 20.4646 25.1947 20.4374 24.7994 20.4374H24.2508V20.8124ZM12.6883 24.5506C12.6883 26.2764 12.683 26.357 12.5609 26.4881C12.4396 26.6183 12.3827 26.6249 11.389 26.6253C10.2435 26.6257 9.97836 26.6717 9.68136 26.9216C9.32924 27.2178 9.25373 27.4857 9.25217 28.4433C9.25098 29.1882 9.26492 29.3058 9.36511 29.3965C9.52823 29.5441 9.78717 29.527 9.90348 29.361C9.97923 29.2528 10.0008 29.0452 10.0008 28.4235C10.0008 27.3264 9.94111 27.3749 11.2904 27.3749C12.4866 27.3749 12.743 27.3202 13.0675 26.9957C13.4054 26.6578 13.4383 26.434 13.4383 24.4722V22.7499H13.0633H12.6883V24.5506ZM14.1258 23.8312C14.1258 24.9912 14.144 25.0624 14.4411 25.0624C14.7763 25.0624 14.8133 24.936 14.8133 23.7918V22.7499H14.4695H14.1258V23.8312ZM15.5779 24.4522L15.5945 26.1545L15.7697 26.2385C15.9206 26.3108 15.9662 26.3085 16.0979 26.2222L16.2508 26.122V24.436V22.7499H15.906H15.5613L15.5779 24.4522ZM17.1258 25.2402C17.1258 27.5734 17.133 27.737 17.2401 27.834C17.3714 27.9527 17.5192 27.9654 17.6924 27.8727C17.8089 27.8104 17.8133 27.7154 17.8133 25.279V22.7499H17.4695H17.1258V25.2402ZM18.6883 24.3942C18.6883 26.1327 18.6979 26.1937 18.9841 26.2787C19.0859 26.309 19.1663 26.2776 19.281 26.1629L19.4383 26.0056V24.3777V22.7499H19.0633H18.6883V24.3942ZM19.9383 23.8705C19.9383 25.0983 19.9631 25.1874 20.3052 25.1874C20.61 25.1874 20.6258 25.1237 20.6258 23.8937V22.7499H20.282H19.9383V23.8705ZM21.1883 24.3083C21.1883 25.2273 21.1619 25.9363 21.1239 26.0363C21.0884 26.1295 20.8528 26.4196 20.6002 26.681C19.9449 27.3591 19.9149 27.4323 19.8869 28.4205L19.8636 29.2473L19.6554 29.3759C19.4215 29.5205 19.1883 29.9444 19.1883 30.2252C19.1883 30.4729 19.4287 30.9316 19.6389 31.0847C19.9017 31.2761 20.4317 31.2971 20.7294 31.1279C21.078 30.9298 21.2093 30.719 21.2389 30.3097C21.2692 29.891 21.1649 29.6488 20.8442 29.3929L20.6258 29.2187V28.4497V27.6807L21.1739 27.1054C21.5597 26.7005 21.7447 26.4541 21.7989 26.2733C21.8512 26.0985 21.8758 25.4955 21.8758 24.3833V22.7499H21.532H21.1883V24.3083Z" fill="#474747"/>
</g>
<defs>
<clipPath id="clip0_1636_9640">
<rect width="32" height="32" fill="white"/>
</clipPath>
</defs>
</svg>
