<svg width="32" height="32" viewBox="0 0 32 32" fill="none" xmlns="http://www.w3.org/2000/svg">
<path fill-rule="evenodd" clip-rule="evenodd" d="M16.4226 2.25438C16.3629 2.28919 16.2885 2.36569 16.2572 2.42438C16.2051 2.52226 15.9928 3.96457 15.9028 4.83138L15.8651 5.19413L15.5951 4.94519C15.0769 4.46763 14.3763 4.24113 14.1239 4.46963C13.8432 4.72363 14.0578 5.12563 14.5206 5.21244C14.8211 5.26882 15.2268 5.64476 15.4376 6.06244C15.7832 6.74719 15.7824 6.71438 15.5309 9.69319C15.3182 12.2124 15.2913 12.4244 15.1531 12.6636C14.8932 13.1133 14.2659 13.2674 13.8149 12.9924C13.1338 12.5773 10.4277 9.98432 9.94162 9.28113C9.27181 8.31226 8.90788 7.30501 8.8555 6.27551C8.83131 5.80107 8.80838 5.71013 8.68806 5.61269C8.51506 5.47263 8.38288 5.47001 8.19319 5.60288C8.04931 5.70363 8.04688 5.72169 8.08138 6.43101C8.11225 7.06701 8.16694 7.38501 8.33663 7.91588L8.37975 8.05069L7.99206 7.93001C7.51456 7.78138 6.70544 7.68701 6.5145 7.75763C6.32288 7.82851 6.23212 8.07963 6.32469 8.28282C6.40106 8.45044 6.4115 8.45413 7.10962 8.55838C7.60337 8.63213 8.24344 8.85182 8.62156 9.07726C8.7535 9.15594 9.06044 9.47301 9.30363 9.78194C9.94938 10.6019 12.6189 14.3506 12.6896 14.5367C12.8709 15.0133 12.6624 15.6939 12.242 15.9984C11.9511 16.2092 12.0639 16.1876 9.60913 16.5008C8.19963 16.6806 7.59075 16.7359 7.508 16.6916C7.32875 16.5956 6.54506 15.7344 6.41169 15.4868L6.293 15.2664L6.48325 14.8598C6.706 14.3837 7.05375 13.9762 7.37862 13.8104C7.50569 13.7456 7.62712 13.6469 7.64856 13.5911C7.76275 13.2935 7.59987 12.9998 7.32069 12.9998C6.9705 12.9998 6.36819 13.489 5.98656 14.0834C5.75538 14.4435 5.74269 14.4306 5.55731 13.6464C5.48537 13.3424 5.3825 13.0444 5.32863 12.9842C5.20731 12.8488 5.00925 12.844 4.82644 12.9721C4.65094 13.095 4.64706 13.3218 4.80969 13.9575C5.05288 14.9086 5.53863 15.8573 6.12388 16.5245L6.44706 16.893L5.86412 17.0401C4.75937 17.3189 3.75 17.9413 3.75 18.3436C3.75 18.5433 3.95544 18.7498 4.15413 18.7498C4.24038 18.7498 4.39106 18.6688 4.4965 18.5658C4.92919 18.1428 5.596 17.8786 6.7055 17.6907C7.98931 17.4733 8.38206 17.4719 9.97106 17.6796C10.763 17.7831 11.4941 17.8994 11.5958 17.9381C12.1607 18.1529 12.5424 18.7584 12.482 19.3439C12.4633 19.5251 12.4061 19.7538 12.3549 19.8521C12.2191 20.1133 9.00862 24.1744 8.3125 24.9657C7.57363 25.8055 6.58144 27.0379 6.46381 27.2619C6.30369 27.5669 6.57419 27.9347 6.89644 27.8501C6.97131 27.8304 7.2675 27.5061 7.5625 27.1209L8.09375 26.4271L8.13556 26.9479C8.18444 27.5574 8.261 27.9201 8.444 28.4091C8.59956 28.8249 8.75363 28.9998 8.96419 28.9998C9.14013 28.9998 9.39831 28.7103 9.35225 28.5647C9.33556 28.5118 9.25106 28.2717 9.16456 28.0311C8.98131 27.5216 8.8755 26.5567 8.93125 25.9039L8.96875 25.4643L11.3438 23.2862C12.65 22.0882 13.8093 21.0696 13.9199 21.0227C14.3409 20.8439 14.7779 20.9578 15.1061 21.3316C15.3413 21.5995 15.3141 21.4386 15.6219 24.3748L15.8611 26.6561L15.6961 26.7771C15.1617 27.1693 14.6217 28.0126 14.5276 28.6023C14.4934 28.8162 14.5091 28.8839 14.6181 28.9929C14.7785 29.1533 15.0085 29.1632 15.1418 29.0154C15.1961 28.9553 15.3007 28.7446 15.3744 28.5474C15.5106 28.183 15.8614 27.6189 15.9756 27.5809C16.0101 27.5694 16.074 27.6994 16.1177 27.8698C16.2176 28.2598 16.5922 29.0487 16.7654 29.2342C16.928 29.4083 17.1478 29.4145 17.3125 29.2498C17.4871 29.0753 17.4701 28.9385 17.217 28.4779C16.9684 28.0256 16.7322 27.1695 16.6344 26.3656C16.5389 25.5809 16.7457 23.6331 16.9799 23.1112C17.2711 22.4623 17.9022 22.0195 18.6299 21.9535C19.4258 21.8814 19.9108 22.1482 21.0336 23.2759C21.8288 24.0746 22.2272 24.639 22.8161 25.8011L23.1112 26.3837L22.9661 26.6449C22.5925 27.3172 22.3772 28.179 22.3759 29.007C22.3751 29.5212 22.3937 29.6318 22.5046 29.7726C22.6626 29.9736 22.8886 29.9862 23.0706 29.8043C23.1856 29.6892 23.1987 29.6237 23.1669 29.3195C23.1112 28.7866 23.314 27.6216 23.4977 27.4192C23.5224 27.392 23.6694 27.7436 23.8244 28.2004C24.0553 28.8808 24.1363 29.048 24.2719 29.1248C24.4198 29.2085 24.4559 29.2081 24.6094 29.1209C24.7628 29.0337 24.7803 28.9901 24.7728 28.7146C24.7567 28.1291 23.8216 25.8711 23.0369 24.5233L22.8141 24.1405L23.0477 24.105C23.1761 24.0854 23.4781 24.0509 23.7188 24.0284L24.1562 23.9873L24.2911 24.5132C24.4758 25.2336 24.6599 25.5984 25.0333 25.9842C25.2759 26.2349 25.3942 26.3121 25.5348 26.3114C25.7548 26.3102 25.832 26.2646 25.9303 26.0779C26.0219 25.9041 25.9761 25.8124 25.6058 25.4276C25.3462 25.1577 25.1526 24.7702 25.0369 24.2891C24.9941 24.1106 24.995 24.1099 25.2294 24.1539C25.5403 24.2123 25.9495 24.3501 26.3881 24.5442C26.8006 24.7268 27.0295 24.7031 27.1372 24.4668C27.2996 24.1103 26.8518 23.7806 25.7857 23.4716C24.8124 23.1896 23.4454 23.1479 22.6266 23.3754C22.5054 23.4091 22.3884 23.4368 22.3666 23.4369C22.3448 23.4371 21.7706 22.6614 21.0904 21.7132C19.7276 19.813 19.6346 19.6278 19.7564 19.0594C19.8501 18.6228 20.1302 18.2685 20.5199 18.0937C20.7966 17.9695 21.1826 17.9148 23.1732 17.7175L25.5026 17.4866L25.84 17.7469C26.225 18.0439 27.1875 19.0271 27.1875 19.1234C27.1875 19.2526 27.4427 19.4373 27.6214 19.4373C27.8212 19.4373 28 19.2488 28 19.0383C28 18.8147 27.6183 18.3191 26.9674 17.6977L26.3216 17.0811L26.5514 16.9703C26.9991 16.7545 27.4612 16.6248 27.7826 16.6248C28.3363 16.6248 28.6252 16.25 28.3125 15.9373C28.2175 15.8423 28.1042 15.8123 27.8402 15.8123C27.3236 15.8123 26.9831 15.9124 26.1875 16.2981L25.4688 16.6464L23.4409 16.4432C21.3133 16.2299 21.1298 16.1892 20.8354 15.8653C20.5723 15.5757 20.4851 15.3171 20.5114 14.9038C20.5308 14.6009 20.5738 14.4655 20.7062 14.2919C20.9031 14.0338 24.2918 11.0866 25.0305 10.5311C25.7808 9.96682 26.7292 9.13807 27.2097 8.62688C27.7252 8.07838 28.2306 7.32319 28.2884 7.01482C28.3248 6.82082 28.3076 6.77038 28.1618 6.64501C28.069 6.56513 27.9511 6.49982 27.8999 6.49982C27.7639 6.49982 27.5607 6.74007 27.3131 7.19382C27.16 7.47438 26.8526 7.83551 26.2821 8.40501L25.4692 9.21644L25.417 8.84257C25.3508 8.36876 25.4499 7.50419 25.6458 6.84594C25.8106 6.29201 25.8011 6.16119 25.5859 6.02013C25.2443 5.79638 25.0184 6.03413 24.8162 6.83001C24.754 7.07526 24.6749 7.28526 24.6406 7.29669C24.5093 7.34051 24.1637 6.95838 23.9954 6.58319C23.7954 6.13744 23.615 6.03507 23.3433 6.21313C22.8735 6.52094 23.4812 7.67376 24.2899 8.00894C24.5914 8.13394 24.6309 8.17026 24.606 8.30038C24.5776 8.44869 24.6451 9.17051 24.7215 9.53732L24.7619 9.73107L22.1018 11.4615C20.6388 12.4132 19.3433 13.2331 19.2229 13.2834C18.8502 13.4391 18.2549 13.4026 17.8676 13.2003C17.493 13.0046 17.161 12.6161 17.0663 12.2628C17.0321 12.1354 16.945 11.3016 16.8726 10.41C16.769 9.13363 16.7559 8.73007 16.8108 8.51182C16.9249 8.05876 17.2288 7.44826 17.6586 6.80894C17.8807 6.47838 18.0625 6.14701 18.0625 6.07263C18.0625 5.90438 17.8532 5.68732 17.691 5.68732C17.5172 5.68732 17.3018 5.90132 16.9406 6.43282L16.625 6.89707V6.42626C16.625 5.72738 16.7333 4.46501 16.8837 3.41007L17.0168 2.47657L16.8487 2.33194C16.6643 2.17332 16.5862 2.15913 16.4226 2.25438ZM16.1324 12.0353C16.1152 12.7754 15.7641 13.3963 15.1799 13.7199C14.8806 13.8857 14.7856 13.906 14.3125 13.9055C13.7272 13.9049 13.5528 13.8411 13.0726 13.452L12.8013 13.2323L13.0871 13.6498C13.5974 14.395 13.6869 15.1115 13.3593 15.8271C13.0688 16.4616 12.5713 16.8563 11.8733 17.0061L11.5393 17.0776L11.8162 17.1713C12.6926 17.4675 13.2771 18.2991 13.2771 19.2498C13.2771 19.8025 13.1259 20.2013 12.7201 20.7192C12.1884 21.3977 12.1891 21.4436 12.724 20.9431C13.011 20.6745 13.3631 20.4136 13.5625 20.3217C14.6914 19.8013 15.9956 20.5602 16.1511 21.8279C16.1711 21.9913 16.2036 22.2536 16.2233 22.4111L16.2592 22.6973L16.4309 22.4267C16.6543 22.0748 17.1713 21.6131 17.5316 21.4437C18.2756 21.094 18.9446 21.0424 19.6798 21.2781C19.8124 21.3207 19.7982 21.2831 19.5468 20.9284C19.0199 20.1849 18.9688 20.0446 18.9688 19.3436C18.9688 18.8179 18.9916 18.6723 19.1123 18.4272C19.4773 17.6861 20.1456 17.2287 21 17.1349C21.2578 17.1066 21.4266 17.0677 21.375 17.0485C21.3234 17.0293 21.1484 16.9663 20.9861 16.9084C20.5811 16.7642 20.1064 16.3205 19.8937 15.8875C19.7437 15.582 19.7188 15.4552 19.7188 14.9998C19.7188 14.5566 19.746 14.4104 19.8832 14.1179L20.0476 13.7673L19.6659 13.9579C19.1699 14.2058 18.4467 14.2608 17.9089 14.0917C16.9955 13.8044 16.3616 13.0404 16.1904 12.0205L16.1397 11.7186L16.1324 12.0353ZM15.5786 15.1948C15.3983 15.2641 15.1004 15.4583 14.9164 15.6264C13.784 16.6614 14.0731 18.5151 15.4688 19.1681C15.7874 19.3172 15.9236 19.3436 16.375 19.3436C16.8184 19.3436 16.9643 19.3163 17.2575 19.1789C17.7516 18.9472 18.0904 18.6167 18.3275 18.135C18.5072 17.77 18.531 17.6621 18.5289 17.2199C18.527 16.8042 18.496 16.6514 18.3474 16.3254C18.1224 15.8319 17.6399 15.3736 17.1537 15.1918C16.6963 15.0206 16.0284 15.0219 15.5786 15.1948ZM15.9849 15.9013C15.5131 16.0697 15.21 16.3767 15.0629 16.8354C14.8954 17.358 15.1525 18.0383 15.6395 18.3606C15.8643 18.5093 15.9588 18.5311 16.3807 18.5311C16.8164 18.5311 16.8911 18.5125 17.1353 18.3432C17.3128 18.2201 17.4656 18.0384 17.5781 17.8163C17.8733 17.2344 17.784 16.6974 17.3169 16.2443C16.9071 15.8466 16.4603 15.7316 15.9849 15.9013Z" fill="#474747"/>
</svg>
