<svg width="24" height="24" viewBox="0 0 24 24" fill="none" xmlns="http://www.w3.org/2000/svg">
<path d="M20 8H10C8.89543 8 8 8.89543 8 10V20C8 21.1046 8.89543 22 10 22H20C21.1046 22 22 21.1046 22 20V10C22 8.89543 21.1046 8 20 8Z" stroke="url(#paint0_linear_16_22)" stroke-width="2" stroke-linecap="round" stroke-linejoin="round"/>
<path d="M4 16C2.9 16 2 15.1 2 14V4C2 2.9 2.9 2 4 2H14C15.1 2 16 2.9 16 4" stroke="url(#paint1_linear_16_22)" stroke-width="2" stroke-linecap="round" stroke-linejoin="round"/>
<defs>
<linearGradient id="paint0_linear_16_22" x1="15" y1="8" x2="15" y2="22" gradientUnits="userSpaceOnUse">
<stop stop-color="#20E27B"/>
<stop offset="1" stop-color="#04A932"/>
</linearGradient>
<linearGradient id="paint1_linear_16_22" x1="9" y1="2" x2="9" y2="16" gradientUnits="userSpaceOnUse">
<stop stop-color="#20E27B"/>
<stop offset="1" stop-color="#04A932"/>
</linearGradient>
</defs>
</svg>
