<svg width="24" height="24" viewBox="0 0 24 24" fill="none" xmlns="http://www.w3.org/2000/svg">
<path d="M12 16C14.2091 16 16 14.2091 16 12C16 9.79086 14.2091 8 12 8C9.79086 8 8 9.79086 8 12C8 14.2091 9.79086 16 12 16Z" stroke="url(#paint0_linear_15_196)" stroke-width="2" stroke-linecap="round" stroke-linejoin="round"/>
<path d="M12 2V4" stroke="url(#paint1_linear_15_196)" stroke-width="2" stroke-linecap="round" stroke-linejoin="round"/>
<path d="M12 20V22" stroke="url(#paint2_linear_15_196)" stroke-width="2" stroke-linecap="round" stroke-linejoin="round"/>
<path d="M4.92993 4.93L6.33993 6.34" stroke="url(#paint3_linear_15_196)" stroke-width="2" stroke-linecap="round" stroke-linejoin="round"/>
<path d="M17.6599 17.66L19.0699 19.07" stroke="url(#paint4_linear_15_196)" stroke-width="2" stroke-linecap="round" stroke-linejoin="round"/>
<path d="M2 12H4" stroke="url(#paint5_linear_15_196)" stroke-width="2" stroke-linecap="round" stroke-linejoin="round"/>
<path d="M20 12H22" stroke="url(#paint6_linear_15_196)" stroke-width="2" stroke-linecap="round" stroke-linejoin="round"/>
<path d="M6.33993 17.66L4.92993 19.07" stroke="url(#paint7_linear_15_196)" stroke-width="2" stroke-linecap="round" stroke-linejoin="round"/>
<path d="M19.0699 4.93L17.6599 6.34" stroke="url(#paint8_linear_15_196)" stroke-width="2" stroke-linecap="round" stroke-linejoin="round"/>
<defs>
<linearGradient id="paint0_linear_15_196" x1="12" y1="8" x2="12" y2="16" gradientUnits="userSpaceOnUse">
<stop stop-color="#20E27B"/>
<stop offset="1" stop-color="#04A932"/>
</linearGradient>
<linearGradient id="paint1_linear_15_196" x1="12.5" y1="2" x2="12.5" y2="4" gradientUnits="userSpaceOnUse">
<stop stop-color="#20E27B"/>
<stop offset="1" stop-color="#04A932"/>
</linearGradient>
<linearGradient id="paint2_linear_15_196" x1="12.5" y1="20" x2="12.5" y2="22" gradientUnits="userSpaceOnUse">
<stop stop-color="#20E27B"/>
<stop offset="1" stop-color="#04A932"/>
</linearGradient>
<linearGradient id="paint3_linear_15_196" x1="5.63493" y1="4.93" x2="5.63493" y2="6.34" gradientUnits="userSpaceOnUse">
<stop stop-color="#20E27B"/>
<stop offset="1" stop-color="#04A932"/>
</linearGradient>
<linearGradient id="paint4_linear_15_196" x1="18.3649" y1="17.66" x2="18.3649" y2="19.07" gradientUnits="userSpaceOnUse">
<stop stop-color="#20E27B"/>
<stop offset="1" stop-color="#04A932"/>
</linearGradient>
<linearGradient id="paint5_linear_15_196" x1="3" y1="12" x2="3" y2="13" gradientUnits="userSpaceOnUse">
<stop stop-color="#20E27B"/>
<stop offset="1" stop-color="#04A932"/>
</linearGradient>
<linearGradient id="paint6_linear_15_196" x1="21" y1="12" x2="21" y2="13" gradientUnits="userSpaceOnUse">
<stop stop-color="#20E27B"/>
<stop offset="1" stop-color="#04A932"/>
</linearGradient>
<linearGradient id="paint7_linear_15_196" x1="5.63493" y1="17.66" x2="5.63493" y2="19.07" gradientUnits="userSpaceOnUse">
<stop stop-color="#20E27B"/>
<stop offset="1" stop-color="#04A932"/>
</linearGradient>
<linearGradient id="paint8_linear_15_196" x1="18.3649" y1="4.93" x2="18.3649" y2="6.34" gradientUnits="userSpaceOnUse">
<stop stop-color="#20E27B"/>
<stop offset="1" stop-color="#04A932"/>
</linearGradient>
</defs>
</svg>
