<svg width="24" height="24" viewBox="0 0 24 24" fill="none" xmlns="http://www.w3.org/2000/svg">
<path d="M4 12H12" stroke="url(#paint0_linear_15_253)" stroke-width="2" stroke-linecap="round" stroke-linejoin="round"/>
<path d="M4 18V6" stroke="url(#paint1_linear_15_253)" stroke-width="2" stroke-linecap="round" stroke-linejoin="round"/>
<path d="M12 18V6" stroke="url(#paint2_linear_15_253)" stroke-width="2" stroke-linecap="round" stroke-linejoin="round"/>
<path d="M17.5 10.5C19.2 9.5 21 10.5 21 12C21 12.5304 20.7893 13.0391 20.4142 13.4142C20.0391 13.7893 19.5304 14 19 14" stroke="url(#paint3_linear_15_253)" stroke-width="2" stroke-linecap="round" stroke-linejoin="round"/>
<path d="M17 17.5C19 19 21 17.8 21 16C21 15.4696 20.7893 14.9609 20.4142 14.5858C20.0391 14.2107 19.5304 14 19 14" stroke="url(#paint4_linear_15_253)" stroke-width="2" stroke-linecap="round" stroke-linejoin="round"/>
<defs>
<linearGradient id="paint0_linear_15_253" x1="8" y1="12" x2="8" y2="13" gradientUnits="userSpaceOnUse">
<stop stop-color="#20E27B"/>
<stop offset="1" stop-color="#04A932"/>
</linearGradient>
<linearGradient id="paint1_linear_15_253" x1="4.5" y1="6" x2="4.5" y2="18" gradientUnits="userSpaceOnUse">
<stop stop-color="#20E27B"/>
<stop offset="1" stop-color="#04A932"/>
</linearGradient>
<linearGradient id="paint2_linear_15_253" x1="12.5" y1="6" x2="12.5" y2="18" gradientUnits="userSpaceOnUse">
<stop stop-color="#20E27B"/>
<stop offset="1" stop-color="#04A932"/>
</linearGradient>
<linearGradient id="paint3_linear_15_253" x1="19.25" y1="10.0975" x2="19.25" y2="14" gradientUnits="userSpaceOnUse">
<stop stop-color="#20E27B"/>
<stop offset="1" stop-color="#04A932"/>
</linearGradient>
<linearGradient id="paint4_linear_15_253" x1="19" y1="14" x2="19" y2="18.1794" gradientUnits="userSpaceOnUse">
<stop stop-color="#20E27B"/>
<stop offset="1" stop-color="#04A932"/>
</linearGradient>
</defs>
</svg>
