<svg width="24" height="24" viewBox="0 0 24 24" fill="none" xmlns="http://www.w3.org/2000/svg">
<path d="M4 12H12" stroke="url(#paint0_linear_15_271)" stroke-width="2" stroke-linecap="round" stroke-linejoin="round"/>
<path d="M4 18V6" stroke="url(#paint1_linear_15_271)" stroke-width="2" stroke-linecap="round" stroke-linejoin="round"/>
<path d="M12 18V6" stroke="url(#paint2_linear_15_271)" stroke-width="2" stroke-linecap="round" stroke-linejoin="round"/>
<path d="M19 18C20.1046 18 21 17.1046 21 16C21 14.8954 20.1046 14 19 14C17.8954 14 17 14.8954 17 16C17 17.1046 17.8954 18 19 18Z" stroke="url(#paint3_linear_15_271)" stroke-width="2" stroke-linecap="round" stroke-linejoin="round"/>
<path d="M20 10C18 12 17 13.5 17 16" stroke="url(#paint4_linear_15_271)" stroke-width="2" stroke-linecap="round" stroke-linejoin="round"/>
<defs>
<linearGradient id="paint0_linear_15_271" x1="8" y1="12" x2="8" y2="13" gradientUnits="userSpaceOnUse">
<stop stop-color="#20E27B"/>
<stop offset="1" stop-color="#04A932"/>
</linearGradient>
<linearGradient id="paint1_linear_15_271" x1="4.5" y1="6" x2="4.5" y2="18" gradientUnits="userSpaceOnUse">
<stop stop-color="#20E27B"/>
<stop offset="1" stop-color="#04A932"/>
</linearGradient>
<linearGradient id="paint2_linear_15_271" x1="12.5" y1="6" x2="12.5" y2="18" gradientUnits="userSpaceOnUse">
<stop stop-color="#20E27B"/>
<stop offset="1" stop-color="#04A932"/>
</linearGradient>
<linearGradient id="paint3_linear_15_271" x1="19" y1="14" x2="19" y2="18" gradientUnits="userSpaceOnUse">
<stop stop-color="#20E27B"/>
<stop offset="1" stop-color="#04A932"/>
</linearGradient>
<linearGradient id="paint4_linear_15_271" x1="18.5" y1="10" x2="18.5" y2="16" gradientUnits="userSpaceOnUse">
<stop stop-color="#20E27B"/>
<stop offset="1" stop-color="#04A932"/>
</linearGradient>
</defs>
</svg>
