<svg width="24" height="24" viewBox="0 0 24 24" fill="none" xmlns="http://www.w3.org/2000/svg">
<path d="M12 19L19 12L22 15L15 22L12 19Z" stroke="url(#paint0_linear_15_277)" stroke-width="2" stroke-linecap="round" stroke-linejoin="round"/>
<path d="M18 13L16.5 5.5L2 2L5.5 16.5L13 18L18 13Z" stroke="url(#paint1_linear_15_277)" stroke-width="2" stroke-linecap="round" stroke-linejoin="round"/>
<path d="M2 2L9.586 9.586" stroke="url(#paint2_linear_15_277)" stroke-width="2" stroke-linecap="round" stroke-linejoin="round"/>
<path d="M11 13C12.1046 13 13 12.1046 13 11C13 9.89543 12.1046 9 11 9C9.89543 9 9 9.89543 9 11C9 12.1046 9.89543 13 11 13Z" stroke="url(#paint3_linear_15_277)" stroke-width="2" stroke-linecap="round" stroke-linejoin="round"/>
<defs>
<linearGradient id="paint0_linear_15_277" x1="17" y1="12" x2="17" y2="22" gradientUnits="userSpaceOnUse">
<stop stop-color="#20E27B"/>
<stop offset="1" stop-color="#04A932"/>
</linearGradient>
<linearGradient id="paint1_linear_15_277" x1="10" y1="2" x2="10" y2="18" gradientUnits="userSpaceOnUse">
<stop stop-color="#20E27B"/>
<stop offset="1" stop-color="#04A932"/>
</linearGradient>
<linearGradient id="paint2_linear_15_277" x1="5.793" y1="2" x2="5.793" y2="9.586" gradientUnits="userSpaceOnUse">
<stop stop-color="#20E27B"/>
<stop offset="1" stop-color="#04A932"/>
</linearGradient>
<linearGradient id="paint3_linear_15_277" x1="11" y1="9" x2="11" y2="13" gradientUnits="userSpaceOnUse">
<stop stop-color="#20E27B"/>
<stop offset="1" stop-color="#04A932"/>
</linearGradient>
</defs>
</svg>
