<svg width="24" height="24" viewBox="0 0 24 24" fill="none" xmlns="http://www.w3.org/2000/svg">
<path d="M18 8C19.6569 8 21 6.65685 21 5C21 3.34315 19.6569 2 18 2C16.3431 2 15 3.34315 15 5C15 6.65685 16.3431 8 18 8Z" stroke="url(#paint0_linear_15_312)" stroke-width="2" stroke-linecap="round" stroke-linejoin="round"/>
<path d="M6 15C7.65685 15 9 13.6569 9 12C9 10.3431 7.65685 9 6 9C4.34315 9 3 10.3431 3 12C3 13.6569 4.34315 15 6 15Z" stroke="url(#paint1_linear_15_312)" stroke-width="2" stroke-linecap="round" stroke-linejoin="round"/>
<path d="M18 22C19.6569 22 21 20.6569 21 19C21 17.3431 19.6569 16 18 16C16.3431 16 15 17.3431 15 19C15 20.6569 16.3431 22 18 22Z" stroke="url(#paint2_linear_15_312)" stroke-width="2" stroke-linecap="round" stroke-linejoin="round"/>
<path d="M8.59009 13.51L15.4201 17.49" stroke="url(#paint3_linear_15_312)" stroke-width="2" stroke-linecap="round" stroke-linejoin="round"/>
<path d="M15.4101 6.51001L8.59009 10.49" stroke="url(#paint4_linear_15_312)" stroke-width="2" stroke-linecap="round" stroke-linejoin="round"/>
<defs>
<linearGradient id="paint0_linear_15_312" x1="18" y1="2" x2="18" y2="8" gradientUnits="userSpaceOnUse">
<stop stop-color="#FC5453"/>
<stop offset="1" stop-color="#A31312"/>
</linearGradient>
<linearGradient id="paint1_linear_15_312" x1="6" y1="9" x2="6" y2="15" gradientUnits="userSpaceOnUse">
<stop stop-color="#FC5453"/>
<stop offset="1" stop-color="#A31312"/>
</linearGradient>
<linearGradient id="paint2_linear_15_312" x1="18" y1="16" x2="18" y2="22" gradientUnits="userSpaceOnUse">
<stop stop-color="#FC5453"/>
<stop offset="1" stop-color="#A31312"/>
</linearGradient>
<linearGradient id="paint3_linear_15_312" x1="12.0051" y1="13.51" x2="12.0051" y2="17.49" gradientUnits="userSpaceOnUse">
<stop stop-color="#FC5453"/>
<stop offset="1" stop-color="#A31312"/>
</linearGradient>
<linearGradient id="paint4_linear_15_312" x1="12.0001" y1="6.51001" x2="12.0001" y2="10.49" gradientUnits="userSpaceOnUse">
<stop stop-color="#FC5453"/>
<stop offset="1" stop-color="#A31312"/>
</linearGradient>
</defs>
</svg>
