<svg width="24" height="24" viewBox="0 0 24 24" fill="none" xmlns="http://www.w3.org/2000/svg">
<path d="M4 19L12 11" stroke="url(#paint0_linear_15_331)" stroke-width="2" stroke-linecap="round" stroke-linejoin="round"/>
<path d="M12 19L4 11" stroke="url(#paint1_linear_15_331)" stroke-width="2" stroke-linecap="round" stroke-linejoin="round"/>
<path d="M20 12H16C16 10.5 16.442 10 17.5 9.5C18.558 9 20 8.334 20 7.002C20 6.53 19.83 6.072 19.516 5.712C19.196 5.35007 18.7613 5.1092 18.2848 5.02981C17.8083 4.95043 17.319 5.03735 16.899 5.276C16.479 5.515 16.161 5.89 16 6.336" stroke="url(#paint2_linear_15_331)" stroke-width="2" stroke-linecap="round" stroke-linejoin="round"/>
<defs>
<linearGradient id="paint0_linear_15_331" x1="8" y1="11" x2="8" y2="19" gradientUnits="userSpaceOnUse">
<stop stop-color="#FC5453"/>
<stop offset="1" stop-color="#A31312"/>
</linearGradient>
<linearGradient id="paint1_linear_15_331" x1="8" y1="11" x2="8" y2="19" gradientUnits="userSpaceOnUse">
<stop stop-color="#FC5453"/>
<stop offset="1" stop-color="#A31312"/>
</linearGradient>
<linearGradient id="paint2_linear_15_331" x1="18" y1="5.00119" x2="18" y2="12" gradientUnits="userSpaceOnUse">
<stop stop-color="#FC5453"/>
<stop offset="1" stop-color="#A31312"/>
</linearGradient>
</defs>
</svg>
