<svg width="24" height="24" viewBox="0 0 24 24" fill="none" xmlns="http://www.w3.org/2000/svg">
<path d="M3 6H21" stroke="url(#paint0_linear_15_335)" stroke-width="2" stroke-linecap="round" stroke-linejoin="round"/>
<path d="M19 6V20C19 21 18 22 17 22H7C6 22 5 21 5 20V6" stroke="url(#paint1_linear_15_335)" stroke-width="2" stroke-linecap="round" stroke-linejoin="round"/>
<path d="M8 6V4C8 3 9 2 10 2H14C15 2 16 3 16 4V6" stroke="url(#paint2_linear_15_335)" stroke-width="2" stroke-linecap="round" stroke-linejoin="round"/>
<path d="M10 11V17" stroke="url(#paint3_linear_15_335)" stroke-width="2" stroke-linecap="round" stroke-linejoin="round"/>
<path d="M14 11V17" stroke="url(#paint4_linear_15_335)" stroke-width="2" stroke-linecap="round" stroke-linejoin="round"/>
<defs>
<linearGradient id="paint0_linear_15_335" x1="12" y1="6" x2="12" y2="7" gradientUnits="userSpaceOnUse">
<stop stop-color="#FC5453"/>
<stop offset="1" stop-color="#A31312"/>
</linearGradient>
<linearGradient id="paint1_linear_15_335" x1="12" y1="6" x2="12" y2="22" gradientUnits="userSpaceOnUse">
<stop stop-color="#FC5453"/>
<stop offset="1" stop-color="#A31312"/>
</linearGradient>
<linearGradient id="paint2_linear_15_335" x1="12" y1="2" x2="12" y2="6" gradientUnits="userSpaceOnUse">
<stop stop-color="#FC5453"/>
<stop offset="1" stop-color="#A31312"/>
</linearGradient>
<linearGradient id="paint3_linear_15_335" x1="10.5" y1="11" x2="10.5" y2="17" gradientUnits="userSpaceOnUse">
<stop stop-color="#FC5453"/>
<stop offset="1" stop-color="#A31312"/>
</linearGradient>
<linearGradient id="paint4_linear_15_335" x1="14.5" y1="11" x2="14.5" y2="17" gradientUnits="userSpaceOnUse">
<stop stop-color="#FC5453"/>
<stop offset="1" stop-color="#A31312"/>
</linearGradient>
</defs>
</svg>
