<svg width="24" height="24" viewBox="0 0 24 24" fill="none" xmlns="http://www.w3.org/2000/svg">
<path d="M12 20H21" stroke="url(#paint0_linear_15_228)" stroke-width="2" stroke-linecap="round" stroke-linejoin="round"/>
<path d="M16.5 3.5C16.8978 3.10218 17.4374 2.87868 18 2.87868C18.2786 2.87868 18.5544 2.93355 18.8118 3.04016C19.0692 3.14676 19.303 3.30302 19.5 3.5C19.697 3.69698 19.8532 3.93084 19.9598 4.18821C20.0665 4.44558 20.1213 4.72143 20.1213 5C20.1213 5.27858 20.0665 5.55443 19.9598 5.8118C19.8532 6.06917 19.697 6.30302 19.5 6.5L7 19L3 20L4 16L16.5 3.5Z" stroke="url(#paint1_linear_15_228)" stroke-width="2" stroke-linecap="round" stroke-linejoin="round"/>
<defs>
<linearGradient id="paint0_linear_15_228" x1="16.5" y1="20" x2="16.5" y2="21" gradientUnits="userSpaceOnUse">
<stop stop-color="#FC5453"/>
<stop offset="1" stop-color="#A31312"/>
</linearGradient>
<linearGradient id="paint1_linear_15_228" x1="11.5607" y1="2.87868" x2="11.5607" y2="20" gradientUnits="userSpaceOnUse">
<stop stop-color="#FC5453"/>
<stop offset="1" stop-color="#A31312"/>
</linearGradient>
</defs>
</svg>
